<svg width="15" height="16" viewBox="0 0 15 16" fill="none" xmlns="http://www.w3.org/2000/svg">
<path d="M3.32063 5.25994L5.18926 7.16671L4.14737 8.22986L0.5 4.50806L4.14737 0.786255L5.18926 1.84941L3.32063 3.75618H8.60526C10.1686 3.75618 11.668 4.38991 12.7735 5.51794C13.8789 6.64598 14.5 8.17593 14.5 9.77122C14.5 11.3665 13.8789 12.8965 12.7735 14.0245C11.668 15.1525 10.1686 15.7863 8.60526 15.7863H1.97368V14.2825H8.60526C9.7778 14.2825 10.9023 13.8072 11.7314 12.9612C12.5605 12.1151 13.0263 10.9677 13.0263 9.77122C13.0263 8.57475 12.5605 7.42729 11.7314 6.58126C10.9023 5.73523 9.7778 5.25994 8.60526 5.25994H3.32063Z" fill="#344AB9"/>
</svg>
